<svg width="512" height="512" viewBox="0 0 512 512" fill="none" xmlns="http://www.w3.org/2000/svg">
<path d="M272.692 15V49.3571H238.308V118.071H203.923V152.429H169.538V186.786H135.154V221.143H100.769V255.5H66.3846V289.857H32V358.571H66.3846V392.929H100.769V427.286H135.154V461.643H169.538V496H238.308V461.643H272.692V392.929H307.077V358.571H341.462V324.214H375.846V289.857H444.615V255.5H479V186.786H444.615V152.429H410.231V118.071H375.846V83.7143H341.462V49.3571H307.077V15H272.692Z" fill="#39352B"/>
<path d="M272.692 49.3571V83.7143H307.077V118.071H341.462V152.429H375.846V186.786H410.231V152.429H375.846V118.071H341.462V83.7143H307.077V49.3571H272.692Z" fill="#DBD1B5"/>
<path d="M272.692 83.7143V118.071H307.077V83.7143H272.692Z" fill="#C7BDA5"/>
<path d="M238.308 118.071V186.786H169.538V221.143H135.154V255.5H100.769V324.214H135.154V358.571H169.538V392.929H238.308V324.214H203.923V289.857H272.692V324.214H307.077V255.5H272.692V221.143H341.461V186.786H307.077V152.429H272.692V118.071H238.308Z" fill="#DBD1B5"/>
<path d="M272.692 118.071V152.429H307.077V186.786H341.462V221.143H375.846V186.786H341.462V152.429H307.077V118.071H272.692Z" fill="#39352B"/>
<path d="M307.077 118.071V152.429H341.462V118.071H307.077Z" fill="#BDB39D"/>
<path d="M203.923 152.429V186.786H238.307V152.429H203.923Z" fill="#C7BDA5"/>
<path d="M341.461 152.429V186.786H375.846V152.429H341.461Z" fill="#BDB39D"/>
<path d="M238.308 186.786V221.143H272.692V186.786H238.308Z" fill="#C7BDA5"/>
<path d="M375.846 186.786V221.143H410.231V186.786H375.846Z" fill="#BDB39D"/>
<path d="M272.692 221.143V255.5H341.462V221.143H272.692Z" fill="#C7BDA5"/>
<path d="M341.462 221.143V255.5H307.077V324.214H341.462V289.857H375.846V221.143H341.462Z" fill="#BDB39D"/>
<path d="M410.231 221.143V255.5H444.616V221.143H410.231Z" fill="#817B6D"/>
<path d="M169.539 255.5V289.857H203.923V255.5H169.539Z" fill="#C7BDA5"/>
<path d="M66.3848 289.857V324.214H100.769V358.571H135.154V392.929H169.539V427.286H203.923V392.929H169.539V358.571H135.154V324.214H100.769V289.857H66.3848Z" fill="#AFA795"/>
<path d="M203.923 289.857V324.214H272.692V289.857H203.923Z" fill="#C7BDA5"/>
<path d="M66.3848 324.214V358.571H100.769V324.214H66.3848Z" fill="#9B937F"/>
<path d="M238.308 324.214V392.929H272.692V358.571H307.077V324.214H238.308Z" fill="#BDB39D"/>
<path d="M100.769 358.571V392.929H135.154V358.571H100.769ZM135.154 392.929V427.286H169.538V392.929H135.154Z" fill="#9B937F"/>
<path d="M203.923 392.929V427.286H238.307V392.929H203.923Z" fill="#BDB39D"/>
<path d="M169.539 427.286V461.643H203.923V427.286H169.539Z" fill="#9B937F"/>
</svg>
