<svg width="316" height="316" viewBox="0 0 316 316" fill="none" xmlns="http://www.w3.org/2000/svg">
<path fill-rule="evenodd" clip-rule="evenodd" d="M246 98H160.66L132.92 77.2C130.156 75.1269 126.795 74.0043 123.34 74H70C65.7565 74 61.6869 75.6857 58.6863 78.6863C55.6857 81.6869 54 85.7565 54 90V226C54 230.243 55.6857 234.313 58.6863 237.314C61.6869 240.314 65.7565 242 70 242H246C250.243 242 254.313 240.314 257.314 237.314C260.314 234.313 262 230.243 262 226V114C262 109.757 260.314 105.687 257.314 102.686C254.313 99.6857 250.243 98 246 98ZM70 90H123.34L144.67 106L123.33 122H70V90ZM239.513 200.448C239.642 199.537 239.709 198.619 239.715 197.699C239.708 196.766 239.641 195.835 239.513 194.911L245.504 190.22C245.765 190.005 245.941 189.704 246 189.371C246.059 189.037 245.998 188.694 245.828 188.402L240.16 178.617C239.988 178.328 239.719 178.108 239.4 177.998C239.082 177.887 238.735 177.892 238.42 178.012L231.382 180.842C229.919 179.702 228.31 178.764 226.599 178.05L225.546 170.571C225.477 170.244 225.3 169.95 225.042 169.737C224.785 169.524 224.463 169.405 224.129 169.398H212.794C212.454 169.405 212.127 169.53 211.869 169.751C211.611 169.973 211.437 170.277 211.378 170.612L210.325 178.09C208.62 178.813 207.015 179.75 205.548 180.88L198.504 178.05C198.189 177.93 197.842 177.925 197.523 178.036C197.205 178.147 196.936 178.367 196.764 178.656L191.096 188.441C190.926 188.733 190.865 189.077 190.924 189.41C190.983 189.743 191.159 190.044 191.42 190.26L197.411 194.95C197.282 195.861 197.214 196.779 197.209 197.699C197.216 198.632 197.283 199.564 197.411 200.489L191.42 205.179C191.159 205.395 190.983 205.696 190.924 206.029C190.865 206.362 190.926 206.706 191.096 206.998L196.764 216.781C196.936 217.071 197.205 217.29 197.524 217.401C197.842 217.512 198.189 217.507 198.504 217.387L205.548 214.557C207.009 215.696 208.616 216.634 210.325 217.349L211.378 224.827C211.447 225.154 211.624 225.448 211.881 225.661C212.139 225.874 212.461 225.994 212.794 226H224.129C224.47 225.993 224.797 225.868 225.055 225.647C225.313 225.426 225.487 225.122 225.546 224.787L226.599 217.308C228.304 216.585 229.909 215.648 231.376 214.518L238.42 217.349C238.735 217.468 239.082 217.473 239.401 217.362C239.719 217.251 239.988 217.032 240.16 216.742L245.828 206.957C245.998 206.665 246.059 206.322 246 205.988C245.941 205.655 245.765 205.354 245.504 205.139L239.513 200.448ZM218.462 187.855C216.515 187.855 214.612 188.433 212.993 189.514C211.374 190.596 210.113 192.133 209.368 193.932C208.622 195.731 208.428 197.71 208.807 199.62C209.187 201.529 210.125 203.283 211.501 204.66C212.878 206.036 214.632 206.974 216.542 207.354C218.451 207.734 220.43 207.539 222.229 206.794C224.028 206.049 225.565 204.787 226.647 203.168C227.728 201.549 228.306 199.646 228.306 197.699C228.298 195.091 227.258 192.592 225.414 190.747C223.57 188.903 221.07 187.863 218.462 187.855Z" fill="white"/>
</svg>
