<svg width="316" height="316" viewBox="0 0 316 316" fill="none" xmlns="http://www.w3.org/2000/svg">
<path fill-rule="evenodd" clip-rule="evenodd" d="M246 98H160.66L132.92 77.2C130.156 75.1269 126.795 74.0043 123.34 74H70C65.7565 74 61.6869 75.6857 58.6863 78.6863C55.6857 81.6869 54 85.7565 54 90V226C54 230.243 55.6857 234.313 58.6863 237.314C61.6869 240.314 65.7565 242 70 242H246C250.243 242 254.313 240.314 257.314 237.314C260.314 234.313 262 230.243 262 226V114C262 109.757 260.314 105.687 257.314 102.686C254.313 99.6857 250.243 98 246 98ZM123.34 90H70V122H123.33L144.67 106L123.34 90ZM198 167C198 163.134 201.134 160 205 160C217.5 160 226.5 160 239 160C242.866 160 246 163.134 246 167C246 185 246 198.5 246 219C246 222.866 242.866 226 239 226C225.5 226 220.5 226 205 226C201.134 226 198 222.866 198 219C198 201 198 185 198 167Z" fill="white"/>
<path d="M207 174C207 172.343 208.343 171 210 171H234C235.657 171 237 172.343 237 174V176C237 177.657 235.657 179 234 179H210C208.343 179 207 177.657 207 176V174Z" fill="white"/>
<path d="M207 198C207 196.343 208.343 195 210 195H216C217.657 195 219 196.343 219 198V200C219 201.657 217.657 203 216 203H210C208.343 203 207 201.657 207 200V198Z" fill="white"/>
<path d="M223 198C223 196.343 224.343 195 226 195H234C235.657 195 237 196.343 237 198V200C237 201.657 235.657 203 234 203H226C224.343 203 223 201.657 223 200V198Z" fill="white"/>
<path d="M207 211C207 209.343 208.343 208 210 208H226C227.657 208 229 209.343 229 211V213C229 214.657 227.657 216 226 216H210C208.343 216 207 214.657 207 213V211Z" fill="white"/>
<path d="M207 186C207 184.343 208.343 183 210 183H222C223.657 183 225 184.343 225 186V188C225 189.657 223.657 191 222 191H210C208.343 191 207 189.657 207 188V186Z" fill="white"/>
<path d="M229 186C229 184.343 230.343 183 232 183H234C235.657 183 237 184.343 237 186V188C237 189.657 235.657 191 234 191H232C230.343 191 229 189.657 229 188V186Z" fill="white"/>
</svg>
