<svg width="316" height="316" viewBox="0 0 316 316" fill="none" xmlns="http://www.w3.org/2000/svg">
<path fill-rule="evenodd" clip-rule="evenodd" d="M160.66 98H246C250.243 98 254.313 99.6857 257.314 102.686C260.314 105.687 262 109.757 262 114V226C262 230.243 260.314 234.313 257.314 237.314C254.313 240.314 250.243 242 246 242H70C65.7565 242 61.6869 240.314 58.6863 237.314C55.6857 234.313 54 230.243 54 226V90C54 85.7565 55.6857 81.6869 58.6863 78.6863C61.6869 75.6857 65.7565 74 70 74H123.34C126.795 74.0043 130.156 75.1269 132.92 77.2L160.66 98ZM123.34 90H70V122H123.33L144.67 106L123.34 90ZM237.5 226H219.5H183.5H161.5L179 197.5L183.5 208.5L202 174.5L219.5 215.5L226.5 203.5L237.5 226Z" fill="white"/>
</svg>
