<svg width="316" height="316" viewBox="0 0 316 316" fill="none" xmlns="http://www.w3.org/2000/svg">
<path fill-rule="evenodd" clip-rule="evenodd" d="M246 98H160.66L132.92 77.2C130.156 75.1269 126.795 74.0043 123.34 74H70C65.7565 74 61.6869 75.6857 58.6863 78.6863C55.6857 81.6869 54 85.7565 54 90V226C54 230.243 55.6857 234.313 58.6863 237.314C61.6869 240.314 65.7565 242 70 242H246C250.243 242 254.313 240.314 257.314 237.314C260.314 234.313 262 230.243 262 226V114C262 109.757 260.314 105.687 257.314 102.686C254.313 99.6857 250.243 98 246 98ZM123.34 90H70V122H123.33L144.67 106L123.34 90ZM245.875 212.863V189.21H207.5V176L180.014 202L207.5 226V212.863H245.875Z" fill="#FFFFFF"/>
</svg>
