<svg width="316" height="316" viewBox="0 0 316 316" fill="none" xmlns="http://www.w3.org/2000/svg">
<path fill-rule="evenodd" clip-rule="evenodd" d="M246 98H160.66L132.92 77.2C130.156 75.1269 126.795 74.0043 123.34 74H70C65.7565 74 61.6869 75.6857 58.6863 78.6863C55.6857 81.6869 54 85.7565 54 90V226C54 230.243 55.6857 234.313 58.6863 237.314C61.6869 240.314 65.7565 242 70 242H246C250.243 242 254.313 240.314 257.314 237.314C260.314 234.313 262 230.243 262 226V114C262 109.757 260.314 105.687 257.314 102.686C254.313 99.6857 250.243 98 246 98ZM123.34 90H70V122H123.33L144.67 106L123.34 90ZM230.836 183.136C231.797 183.498 232.825 183.649 233.85 183.581L243.664 173.767C243.76 173.671 243.89 173.617 244.026 173.617C244.162 173.616 244.292 173.67 244.388 173.765C244.415 173.792 244.428 173.824 244.447 173.853L244.453 173.848L244.47 173.889C244.487 173.919 244.5 173.95 244.51 173.983C245.455 176.107 246 178.448 246 180.923C246 190.401 238.316 198.085 228.838 198.085C227.076 198.086 225.325 197.815 223.646 197.282L205.747 215.181C205.651 221.171 200.771 226 194.758 226C188.685 226 183.761 221.076 183.761 215.002C183.761 208.989 188.589 204.11 194.579 204.013L212.477 186.114C211.958 184.476 211.674 182.734 211.674 180.924C211.674 171.446 219.358 163.762 228.836 163.762C231.231 163.764 233.597 164.272 235.782 165.252C235.81 165.262 235.837 165.273 235.863 165.287L235.87 165.291L235.878 165.295C235.918 165.316 235.959 165.338 235.993 165.372C236.089 165.468 236.143 165.598 236.143 165.734C236.143 165.87 236.089 166 235.993 166.096L226.179 175.91C226.111 176.935 226.262 177.962 226.624 178.924C226.985 179.886 227.548 180.759 228.274 181.486C229.001 182.212 229.874 182.775 230.836 183.136Z" fill="white"/>
<path d="M199.303 215.002C199.303 216.208 198.824 217.364 197.972 218.216C197.119 219.068 195.963 219.547 194.758 219.547C193.553 219.547 192.397 219.068 191.545 218.216C190.692 217.364 190.213 216.208 190.213 215.002C190.213 213.797 190.692 212.641 191.545 211.789C192.397 210.936 193.553 210.458 194.758 210.458C195.963 210.458 197.119 210.936 197.972 211.789C198.824 212.641 199.303 213.797 199.303 215.002Z" fill="white"/>
</svg>
