<svg width="512" height="512" viewBox="0 0 512 512" fill="none" xmlns="http://www.w3.org/2000/svg">
<g clip-path="url(#clip0_159_13)">
<path d="M125.544 59.8993C125.546 64.4565 129.293 68.2063 133.849 68.2123H148V99.7877H133.849C129.371 99.9026 125.751 103.618 125.751 108.098C125.751 112.578 129.371 116.293 133.849 116.408H148V140.64C148 144.678 144.678 148 140.642 148H116.422V133.846C116.422 129.285 112.67 125.533 108.111 125.533C103.552 125.533 99.8 129.285 99.8 133.846V148H68.2327V133.846C68.2343 133.775 68.2354 133.704 68.2354 133.633C68.2354 129.072 64.4838 125.32 59.9245 125.32C55.3652 125.32 51.6136 129.072 51.6136 133.633C51.6136 133.704 51.6147 133.775 51.6163 133.846V148H27.3639C23.3255 147.997 20.0027 144.674 20 140.634V27.3658C20 23.3252 23.3244 20 27.3639 20H140.62C144.657 20 147.978 23.3225 147.978 27.3603V51.5808H133.827C129.276 51.5955 125.54 55.347 125.544 59.8993Z" fill="#9722FF"/>
<path d="M269.543 59.8993C269.543 64.4576 273.291 68.2096 277.849 68.2123H292V99.7877H277.849C273.371 99.9026 269.75 103.618 269.75 108.098C269.75 112.578 273.371 116.293 277.849 116.408H292V140.634C292 144.673 288.679 147.997 284.641 148H171.359C167.322 148 164 144.678 164 140.64V116.408H178.119C178.19 116.41 178.26 116.411 178.332 116.411C182.891 116.411 186.643 112.658 186.643 108.098C186.643 103.538 182.891 99.785 178.332 99.785C178.26 99.785 178.19 99.7861 178.119 99.7877H164V68.2123H178.119C178.19 68.214 178.261 68.215 178.332 68.215C182.894 68.215 186.648 64.4598 186.648 59.8966C186.648 55.3334 182.894 51.5781 178.332 51.5781C178.261 51.5781 178.19 51.5792 178.119 51.5808H164V27.3549C164 23.3203 167.32 20 171.353 20H284.619C288.656 20 291.978 23.3225 291.978 27.3603V51.5808H277.827C273.275 51.5955 269.539 55.347 269.543 59.8993Z" fill="#DC29DD"/>
<path d="M437 27.3651V140.64C437 144.678 433.677 148 429.639 148H405.412V133.847C405.414 133.776 405.415 133.705 405.415 133.634C405.415 129.074 401.662 125.322 397.102 125.322C392.541 125.322 388.788 129.074 388.788 133.634C388.788 133.705 388.789 133.776 388.791 133.847V148H357.214V133.847C357.216 133.776 357.217 133.705 357.217 133.634C357.217 129.074 353.464 125.322 348.904 125.322C344.343 125.322 340.59 129.074 340.59 133.634C340.59 133.705 340.591 133.776 340.593 133.847V148H316.366C312.326 147.997 309.003 144.674 309 140.635V116.411H323.155C323.226 116.413 323.297 116.414 323.368 116.414C327.929 116.414 331.681 112.661 331.681 108.101C331.681 103.541 327.929 99.7891 323.368 99.7891C323.297 99.7891 323.226 99.7901 323.155 99.7918H309V68.2191H323.155C327.637 68.1042 331.261 64.3868 331.261 59.9041C331.261 55.4213 327.637 51.7039 323.155 51.589H309V27.3651C309 23.3249 312.325 20 316.366 20H429.639C433.677 20 437 23.3222 437 27.3597V27.3651Z" fill="#27A2FD"/>
<path d="M148 171.36V284.64C148 288.678 144.678 292 140.64 292H116.416V277.847C116.416 273.287 112.664 269.534 108.104 269.534C103.544 269.534 99.7918 273.287 99.7918 277.847V292H68.2191V277.847C68.2207 277.776 68.2218 277.705 68.2218 277.634C68.2218 273.074 64.4696 269.322 59.9095 269.322C55.3494 269.322 51.5972 273.074 51.5972 277.634C51.5972 277.705 51.5983 277.776 51.5999 277.847V292H27.3651C23.3249 292 20 288.675 20 284.635V171.36C20.006 167.323 23.3282 164.003 27.3651 164H51.589V178.153C51.7039 182.632 55.4191 186.253 59.8986 186.253C64.3781 186.253 68.0934 182.632 68.2082 178.153V164H99.7809V178.153C99.7809 182.713 103.533 186.466 108.093 186.466C112.653 186.466 116.406 182.713 116.406 178.153V164H140.64C144.678 164 148 167.322 148 171.36Z" fill="#DC29DD"/>
<path d="M269.543 203.901V203.906C269.543 208.461 273.29 212.209 277.843 212.209H292V243.786H277.849C273.371 243.9 269.75 247.616 269.75 252.096C269.75 256.576 273.371 260.292 277.849 260.407H292V284.639C292 288.677 288.678 292 284.641 292H260.377V277.845C260.379 277.774 260.38 277.703 260.38 277.632C260.38 273.071 256.628 269.319 252.068 269.319C247.509 269.319 243.757 273.071 243.757 277.632C243.757 277.703 243.758 277.774 243.76 277.845V292H212.191V277.845C212.191 273.284 208.439 269.532 203.88 269.532C199.32 269.532 195.569 273.284 195.569 277.845V292H171.353C167.32 292 164 288.68 164 284.645V171.361C164 167.323 167.322 164 171.359 164H284.619C288.655 164.003 291.976 167.324 291.978 171.361V195.588H277.827C273.277 195.6 269.539 199.35 269.543 203.901Z" fill="#27A2FD"/>
<path d="M437 171.36V284.64C437 288.678 433.678 292 429.64 292H316.365C312.325 292 309 288.675 309 284.635V260.395H323.153C323.224 260.396 323.295 260.397 323.366 260.397C327.926 260.397 331.678 256.645 331.678 252.085C331.678 247.525 327.926 243.773 323.366 243.773C323.295 243.773 323.224 243.774 323.153 243.775H309V212.203H323.153C323.224 212.204 323.295 212.205 323.366 212.205C327.926 212.205 331.678 208.453 331.678 203.893C331.678 199.333 327.926 195.581 323.366 195.581C323.295 195.581 323.224 195.582 323.153 195.584H309V171.36C309.006 167.323 312.328 164.003 316.365 164H340.589V178.153C340.704 182.632 344.419 186.253 348.899 186.253C353.378 186.253 357.093 182.632 357.208 178.153V164H388.781V178.153C388.896 182.632 392.611 186.253 397.09 186.253C401.57 186.253 405.285 182.632 405.4 178.153V164H429.64C433.678 164 437 167.322 437 171.36Z" fill="#3344FF"/>
<path d="M125.544 348.898C125.546 353.455 129.293 357.204 133.849 357.21H148V388.784H133.849C129.29 388.784 125.538 392.537 125.538 397.097C125.538 401.657 129.29 405.41 133.849 405.41H148V429.64C148 433.678 144.678 437 140.642 437H27.3639C23.3255 436.997 20.0027 433.674 20 429.635V316.365C20 312.325 23.3244 309 27.3639 309H51.5836V323.127C51.582 323.197 51.5809 323.268 51.5809 323.34C51.5809 327.9 55.3325 331.652 59.8918 331.652C64.4511 331.652 68.2027 327.9 68.2027 323.34C68.2027 323.268 68.2016 323.197 68.2 323.127V309H99.7673V323.127C99.7673 327.687 103.519 331.439 108.078 331.439C112.638 331.439 116.389 327.687 116.389 323.127V309H140.609C144.646 309 147.967 312.322 147.967 316.36V340.579H133.816C129.271 340.603 125.544 344.351 125.544 348.898Z" fill="#9722FF"/>
<path d="M292 316.365V429.635C292 433.673 288.679 436.997 284.64 437H171.36C167.322 437 164 433.678 164 429.64V405.411H178.121C182.681 405.411 186.434 401.659 186.434 397.099C186.434 392.539 182.681 388.786 178.121 388.786H164V357.214H178.121C178.192 357.215 178.263 357.216 178.334 357.216C182.897 357.216 186.652 353.461 186.652 348.899C186.652 344.336 182.897 340.581 178.334 340.581C178.263 340.581 178.192 340.582 178.121 340.584H164V316.354C164 312.32 167.32 309 171.355 309H195.579V323.126C195.579 327.686 199.332 331.438 203.892 331.438C208.452 331.438 212.205 327.686 212.205 323.126V309H243.779V323.126C243.777 323.197 243.776 323.268 243.776 323.339C243.776 327.899 247.529 331.651 252.089 331.651C256.649 331.651 260.401 327.899 260.401 323.339C260.401 323.268 260.4 323.197 260.399 323.126V309H284.64C288.678 309 292 312.322 292 316.36V316.365Z" fill="#3344FF"/>
<path fill-rule="evenodd" clip-rule="evenodd" d="M404.869 314.109C401.992 311.233 397.32 311.233 394.443 314.109L314.273 394.239C311.396 397.114 311.396 401.784 314.273 404.66L394.443 484.79C397.32 487.665 401.992 487.665 404.869 484.79L485.039 404.66C487.916 401.784 487.916 397.114 485.039 394.239L404.869 314.109Z" fill="#9722FF"/>
</g>
<defs>
<clipPath id="clip0_159_13">
<rect width="512" height="512" fill="white"/>
</clipPath>
</defs>
</svg>
