<svg width="512" height="512" viewBox="0 0 512 512" fill="none" xmlns="http://www.w3.org/2000/svg">
<path d="M233.922 37.4161C239.327 40.9806 249.215 48.9541 255.674 49.523C261.081 49.9994 274.675 40.7374 278.084 36.7569C271.453 33.6612 263.616 25.9257 256.333 25.0298C253.985 24.7411 251.672 26.6169 249.742 27.7142C244.538 30.6722 238.298 33.306 233.922 37.4161Z" fill="#B8D67B"/>
<path d="M189.76 62.4631C195.095 68.7328 204.519 71.0622 210.853 76.3049C203.579 79.7047 196.873 84.4228 189.76 88.1693V89.4876C196.855 92.5446 204.902 97.0847 210.853 102.011C203.579 105.411 196.873 110.129 189.76 113.875V115.194C196.865 118.51 204.81 122.715 210.853 127.717C205.06 130.422 195.519 139.548 189.101 139.224C183.828 138.959 176.508 132.469 171.964 129.88L137.03 109.822C133.135 107.599 127.107 102.177 122.529 102.101C116.697 102.004 104.532 110.84 100.118 114.535C108.798 120.278 118.121 125.168 127.143 130.354C132.603 133.492 138.216 137.797 144.28 139.582V140.9C137.33 143.099 129.064 152.493 121.87 152.502C113.902 152.512 107.53 141.023 99.4593 141.274C93.5014 141.46 89.0483 149.245 82.9809 149.087C72.3841 148.811 66.7037 134.525 55.2974 139.582V140.241C70.9788 147.562 85.7585 157.718 100.778 166.329L200.966 224.136L239.855 246.563C245.045 249.42 249.928 253.275 255.674 254.93V248.998C262.324 247.436 268.889 242.042 274.789 238.639C288.6 230.672 302.241 222.213 316.314 214.723V213.405C311.428 210.414 306.414 207.103 301.154 204.836L331.474 187.417C335.503 185.107 340.067 181.123 344.657 180.11C350.3 178.864 355.631 187.049 361.135 187.639C367.231 188.293 378.353 178.896 383.545 175.834V175.175C378.783 172.033 373.626 168.864 368.385 166.606V165.288C375.507 163.034 382.137 155.132 389.478 154.22C394.898 153.547 400.14 160.726 405.297 161.855C407.703 162.382 409.919 160.677 411.888 159.534C417.222 156.438 423.868 153.68 428.367 149.469C423.305 146.483 418.073 142.912 412.547 140.9C419.025 135.573 427.155 132.089 434.299 127.717C429.593 123.629 423.235 120.819 417.82 117.731C415.888 116.629 413.582 114.796 411.229 115.219C404.145 116.496 396.125 127.738 388.819 126.278C381.598 124.836 372.757 117.524 366.408 113.743C352.073 105.206 336.398 97.991 322.905 88.1693C309.411 97.9726 293.498 106.104 278.743 113.875C286.076 122.435 301.81 128.419 311.7 133.851C314.959 135.641 319.662 139.87 323.564 139.286C331.123 138.154 337.652 128.046 345.316 128.25C352.307 128.437 360.425 137.164 367.067 139.582V140.9C350.294 147.006 334.599 159.512 318.95 168.126C313.944 170.881 306.936 177.308 301.154 177.786C294.376 178.345 284.361 168.601 278.556 165.516C256.197 153.636 235.106 138.425 212.171 127.717V127.058C218.083 124.294 227.36 115.261 233.922 115.423C241.752 115.616 247.862 125.956 255.674 126.642C261.688 127.17 272.292 118.22 277.425 115.194V113.875C270.644 109.724 263.676 105.084 256.333 102.011V101.352C265.934 97.3332 275.08 90.9983 284.016 85.6653C289.429 82.4348 295.727 79.7891 300.495 75.6458C293.762 71.5255 286.644 66.9017 279.403 63.7814V62.4631C286.673 59.0645 293.404 54.3729 300.495 50.5987C295.949 46.3287 289.424 43.5983 284.016 40.5266C282.05 39.4093 279.822 37.632 277.425 38.0941C270.005 39.524 263.924 48.8125 256.333 49.2362C248.474 49.6749 241.784 38.2691 233.922 37.8728C229.94 37.6721 224.731 42.2968 221.399 44.1925C210.827 50.2065 200.134 56.1143 189.76 62.4631Z" fill="#9FCC6B"/>
<path d="M212.171 75.6458V76.3049C218.615 80.5557 226.007 85.5275 233.263 88.1693V89.4876C226.804 91.5315 216.581 96.8626 212.171 102.011C217.648 105.363 227.386 113.615 233.922 113.594C240.518 113.573 250.088 105.305 255.674 102.011V101.352C249.229 97.1012 241.838 92.1294 234.581 89.4876V88.1693C249.805 81.6096 262.799 70.1789 278.084 63.7814V62.4631C271.805 59.5316 263.308 51.1812 256.333 50.9206C252.346 50.7717 247.189 55.2117 243.809 57.098C233.206 63.0165 222.296 68.9457 212.171 75.6458Z" fill="#81BD59"/>
<path d="M279.403 62.4631V63.7814C284.404 66.843 295.174 75.8626 301.154 75.1765C308.177 74.3703 315.857 66.7646 322.246 63.7814V62.4631C316.602 59.4588 306.958 50.7599 300.495 50.9278C294.316 51.0883 284.494 59.0941 279.403 62.4631Z" fill="#B8D67B"/>
<path d="M167.35 75.6458V76.3049C172.936 79.5993 182.597 87.849 189.101 88.1324C195.153 88.3954 205.881 79.5947 210.853 76.3049C206.972 71.7444 200.14 69.208 195.033 66.1543C193.084 64.9889 190.854 63.2178 188.442 63.6377C181.768 64.7978 172.984 71.9177 167.35 75.6458ZM256.333 101.352V102.011C263.163 106.039 270.15 110.741 277.425 113.875V115.194C270.097 118.261 263.103 122.915 256.333 127.058C261.715 132.114 270.646 136.66 277.425 139.582V140.9C270.09 144.06 263.206 148.711 256.333 152.764C260.555 156.73 272.207 164.882 278.084 165.06C284.103 165.242 296.049 156.628 300.495 152.764C293.649 148.727 286.7 144.045 279.402 140.9C284.51 134.391 294.286 132.453 300.495 127.058C293.315 122.825 285.187 119.174 278.743 113.875C287.332 110.749 295.199 104.805 303.131 100.313C317.022 92.4484 331.04 84.639 344.657 76.3049C340.485 72.0021 334.01 69.3886 328.837 66.4179C326.926 65.3205 324.575 63.4828 322.246 63.7313C316.218 64.3733 308.379 71.2329 303.131 74.2287L256.333 101.352Z" fill="#81BD59"/>
<path d="M144.939 88.1693V88.8284C155.106 95.5555 166.071 101.121 176.578 107.291C179.945 109.269 185.686 114.253 189.76 113.817C196.233 113.122 205.465 105.576 210.853 102.011C203.519 93.3922 188.279 88.16 178.555 82.3695C175.418 80.5009 170.46 76.3326 166.691 76.3952C160.312 76.5006 150.41 84.9428 144.939 88.1693ZM323.564 88.1693V89.4875C339.653 98.0503 355.201 107.74 371.022 116.789C375.78 119.512 384.555 127.059 390.137 126.659C396.615 126.194 405.656 118.48 411.229 115.194V113.875C396.087 104.609 380.363 96.299 365.09 87.2484C360.072 84.2751 351.137 76.7373 345.316 76.4354C339.314 76.1243 328.713 85.1326 323.564 88.1693Z" fill="#B8D67B"/>
<path d="M122.529 101.352C136.356 112.928 155.619 120.942 171.305 129.88C175.964 132.534 183.711 139.398 189.101 139.629C195.051 139.884 205.941 130.957 210.853 127.717C206.999 123.188 200.165 120.569 195.033 117.645C184.24 111.495 173.387 105.366 162.736 98.979C158.158 96.2338 150.3 89.5567 144.939 89.2852C138.736 88.9708 127.783 98.136 122.529 101.352Z" fill="#81BD59"/>
<path d="M77.708 127.717C87.883 134.45 98.7482 140.319 109.346 146.358C112.721 148.281 117.872 152.874 121.87 152.872C128.599 152.87 138.151 143.762 144.28 140.9V139.582C133.295 134.848 123.041 127.516 112.642 121.6C109.267 119.68 104.071 115.147 100.119 115.07C94.4816 114.959 81.765 123.919 77.708 127.717Z" fill="#81BD59"/>
<path d="M212.171 127.058V127.717C222.122 134.281 232.895 139.698 243.15 145.775C246.564 147.798 252.24 152.559 256.333 152.359C262.655 152.05 272.048 144.191 277.425 140.9V139.582C267.243 133.35 256.818 127.51 246.446 121.6C243.021 119.649 237.97 115.148 233.922 115.07C227.797 114.951 217.215 123.72 212.171 127.058Z" fill="#B8D67B"/>
<path d="M60.5706 136.945V137.604C66.8554 140.539 76.0351 149.351 82.9811 149.487C88.1375 149.588 95.0663 143.328 99.4594 140.9C95.2765 136.659 88.7439 134.073 83.6402 131.013C81.7241 129.864 79.4132 127.963 77.0489 128.141C71.7284 128.541 65.2352 134.463 60.5706 136.945ZM279.403 140.9C286.173 145.043 293.167 149.697 300.495 152.764C294.577 156.387 282.628 160.398 279.403 166.606C284.603 169.789 294.936 178.517 301.154 178.07C305.633 177.749 311.218 173.09 314.996 170.825C317.675 169.218 321.175 167.931 322.905 165.288C315.196 162.465 308.7 156.676 301.154 153.423C305.351 149.972 317.995 140.343 323.565 141.224C331.193 142.432 337.501 152.468 345.316 152.468C351.927 152.468 361.272 143.952 367.067 140.9V139.582C361.529 136.665 350.948 127.348 344.657 128.046C337.118 128.882 329.864 140.1 322.246 139.104C314.643 138.112 308.304 127.907 300.495 128.006C296.267 128.06 290.907 132.739 287.312 134.782C284.34 136.473 281.021 137.784 279.403 140.9Z" fill="#B8D67B"/>
<path d="M412.547 140.9C417.838 143.687 422.845 147.158 428.367 149.469C423.27 152.83 417.793 155.638 412.547 158.762C410.689 159.87 407.977 162.136 405.677 161.737C400.204 160.789 395.25 153.23 389.478 153.893C382.511 154.692 374.746 162.318 368.385 165.288V166.606C373.297 169.612 378.329 172.739 383.546 175.175V175.834C372.511 180.452 362.3 187.907 351.907 193.816C348.449 195.782 344.558 198.968 340.702 199.994C335.227 201.449 329.456 193.702 324.224 192.677C321.526 192.148 319.184 194.175 316.973 195.404C311.758 198.305 305.73 201.004 301.154 204.836C306.06 207.839 311.027 211.127 316.314 213.404V214.723C294.712 222.632 277.173 240.861 255.674 248.998C255.667 251.275 255.543 253.369 255.015 255.589C260.407 254.615 265.466 250.657 270.175 247.957L300.495 230.443C335.099 210.69 369.619 190.748 403.979 170.568L438.913 150.405C444.387 147.267 451.925 144.397 456.05 139.582C450.708 136.091 441.269 129.107 434.958 128.279C429.637 127.58 415.906 136.979 412.547 140.9Z" fill="#81BD59"/>
<path d="M55.9564 140.241V176.493C55.9564 180.603 54.596 187.642 56.3539 191.396C59.7366 198.62 75.3844 198.235 77.4982 206.182C80.3101 216.754 77.7078 231.444 77.7078 242.406C77.7078 245.901 76.3783 252.859 78.3854 255.846C82.0502 261.3 94.2698 265.905 100.118 268.772C100.118 260.324 98.8165 250.643 100.777 242.406C95.2322 240.085 90.174 236.62 84.9583 233.652C82.9545 232.512 79.7432 231.336 78.7644 229.083C76.118 222.99 78.367 211.483 78.367 204.836C85.212 209.351 92.6892 213.891 100.118 217.359V198.904C100.118 196.574 100.687 193.311 99.0617 191.396C94.0675 185.509 82.3975 184.873 78.3854 178.254C74.3555 171.607 80.3589 160.638 77.3104 153.562C74.9975 148.194 61.1333 142.658 55.9564 140.241Z" fill="#619D49"/>
<path d="M301.154 153.423C307.02 157.014 315.464 164.072 322.246 165.246C327.494 166.155 341.344 156.657 344.657 152.764C339.086 149.09 330.189 141.883 323.564 140.85C321.243 140.487 318.905 142.334 316.973 143.384C311.903 146.141 304.917 149.03 301.154 153.423Z" fill="#81BD59"/>
<path d="M455.391 140.241C439.645 151.486 421.417 160.172 404.638 169.803C372.951 187.992 341.113 206.047 309.723 224.742L272.152 246.46C267.974 248.858 259.604 251.689 257.01 255.839C254.143 260.426 256.333 271.98 256.333 277.34L255.674 332.048C260.37 330.339 274.331 325.387 276.369 320.703C279.379 313.782 272.973 301.442 277.823 295.394C280.808 291.67 287.797 289.106 291.926 286.753C302.284 280.852 312.738 274.994 322.905 268.772V294.478C330.666 292.021 338.375 286.203 345.316 281.954V307.001C350.734 304.667 363.381 299.491 366.39 294.339C368.703 290.38 367.067 281.847 367.067 277.34V235.156C367.067 230.603 365.448 222.162 367.745 218.14C370.871 212.666 383.842 207.47 389.478 204.836V256.248C395.194 253.579 407.678 248.578 411.211 243.323C415.061 237.595 410.354 225.978 412.098 219.363C413.622 213.583 429.063 207.092 434.299 204.836V255.589C439.704 253.26 452.356 248.046 455.373 242.925C458.57 237.498 456.05 224.286 456.05 218.018V163.97C456.05 157.133 458.033 146.536 455.391 140.241Z" fill="#415D35"/>
<path d="M77.7078 152.764C77.7078 159.661 75.2954 171.968 78.1053 178.254C81.1722 185.114 94.4136 186.012 99.0618 191.903C102.794 196.634 100.118 211.419 100.118 217.359C93.2568 212.834 85.8152 208.313 78.367 204.836C78.367 211.438 75.9704 223.659 78.7644 229.626C80.8592 234.099 91.9056 238.144 96.1636 240.521C111.917 249.315 128.022 261.919 144.939 268.113V243.725C152.374 247.196 158.978 252.782 166.691 255.589C166.691 249.406 169.335 235.37 166.013 230.14C164.186 227.263 159.007 225.523 156.145 223.818C149.182 219.672 142.151 215.536 135.052 211.629C131.587 209.721 126.091 207.704 123.585 204.579C118.475 198.206 126.144 185.487 121.851 178.728C119.641 175.246 112.865 172.855 109.346 170.838C98.9168 164.859 88.5855 157.849 77.7078 152.764ZM144.28 165.947V166.606C149.859 170.021 159.417 178.238 166.032 178.542C172.538 178.841 182.758 169.631 188.442 166.606V165.288C182.554 162.187 173.958 154.422 167.35 153.84C160.987 153.28 149.715 162.772 144.28 165.947ZM189.76 165.288V166.606L221.399 184.877C224.638 186.722 230.071 191.409 233.922 191.051C240.686 190.424 249.852 182.563 255.674 179.13C248.514 170.777 232.984 165.015 223.376 159.541C220.156 157.706 215.355 153.602 211.512 153.745C204.537 154.006 196.039 162.356 189.76 165.288Z" fill="#81BD59"/>
<path d="M122.529 179.13C122.529 185.312 119.885 199.348 123.206 204.579C125.217 207.746 131.182 209.861 134.393 211.629C141.718 215.661 148.951 219.949 156.145 224.212C159.047 225.932 163.495 227.472 165.634 230.14C170.519 236.233 163.874 248.468 167.088 255.332C170.344 262.285 183.42 262.909 188.045 268.945C192.647 274.954 186.467 286.257 189.499 292.935C190.957 296.149 197.379 298.381 200.306 300.116C210.31 306.044 222.606 316.214 233.922 318.866V295.137C241.765 298.516 248.6 304.046 256.333 307.66V270.09C256.333 266.39 257.723 259.124 255.655 255.938C253.818 253.105 248.631 251.363 245.787 249.657L220.08 234.878L155.485 197.577C145.231 191.588 133.936 182.485 122.529 179.13Z" fill="#619D49"/>
<path d="M233.922 190.994V192.312C244.846 197.413 255.1 204.39 265.561 210.386C269.083 212.406 274.551 217.194 278.743 217.038C285.718 216.777 294.216 208.427 300.495 205.495V204.177L268.197 185.536C264.867 183.643 259.654 179.111 255.674 179.474C248.426 180.136 240.604 188.115 233.922 190.994ZM323.564 191.653C326.741 194.628 334.93 200.462 339.384 200.476C345.945 200.496 355.37 192.053 361.135 189.017V187.698C356.855 185.444 350.805 180.029 345.975 179.64C339.952 179.153 328.526 188.381 323.564 191.653Z" fill="#B8D67B"/>
<path d="M55.9564 192.312V229.224C55.9564 232.811 54.5392 240.27 56.634 243.307C60.1827 248.452 72.0102 253.216 77.7077 255.589V218.678C77.7077 214.927 79.0926 207.681 77.0302 204.434C74.1155 199.844 61.0989 193.826 55.9564 192.312Z" fill="#533D2E"/>
<path d="M233.263 217.359V218.677C240.238 221.683 246.967 228.758 254.355 230.405C256.921 230.978 259.502 229.126 261.606 227.897C266.865 224.828 274.127 222.01 278.084 217.359L262.924 208.511C260.829 207.295 258.246 205.05 255.674 205.312C248.266 206.068 240.129 214.4 233.263 217.359Z" fill="#81BD59"/>
<path d="M367.067 293.819C375.091 291.983 382.067 285.418 389.478 281.954V316.888C389.478 321.169 390.767 327.952 389.08 331.924C386.263 338.557 373.494 339.895 368.783 345.068C367.128 346.887 367.726 350.221 367.726 352.481V370.937C375.457 368.123 382.036 362.547 389.478 359.073V409.826C405.906 402.747 421.387 391.578 436.935 382.703C441.86 379.891 452.346 376.189 455.373 371.346C458.683 366.05 456.05 352.122 456.05 345.89C448.541 349.887 441.458 355.045 433.64 358.414V333.367C426.019 336.556 419.475 341.962 411.888 345.231C411.888 339.189 409.317 325.557 412.566 320.441C414.295 317.717 419.07 316.116 421.775 314.513L445.504 300.792C448.417 299.121 453.615 297.321 455.373 294.337C457.395 290.904 456.05 283.87 456.05 279.977V243.065C448.67 246.953 441.413 251.235 434.299 255.589V204.836C428.513 206.538 423.026 210.659 417.82 213.684C415.697 214.918 412.801 216.164 412.098 218.739C410.229 225.585 415.013 236.732 411.211 242.816C407.562 248.653 395.233 252.452 389.478 256.248V204.836C384.043 206.556 370.747 212.617 367.745 217.576C364.898 222.278 367.067 233.664 367.067 239.111V293.819Z" fill="#352B22"/>
<path d="M100.118 243.065V268.772C93.477 264.358 85.3063 258.653 77.7079 256.248V281.295C70.9293 277.297 63.5148 271.654 55.9565 269.431C55.9565 276.033 53.5599 288.254 56.3539 294.221C57.8238 297.36 64.2576 299.763 67.1617 301.449C77.025 307.173 89.0074 316.977 100.118 319.525V294.478C107.323 299.608 115.557 303.488 123.188 307.956C130.191 312.057 137.348 317.311 144.939 320.184V295.137C152.326 298.585 159.392 305.181 167.35 307.001V281.295C173.941 285.496 181.568 290.985 189.101 293.16C189.101 287.114 191.574 274.137 188.424 268.945C185.373 263.917 172.703 258.558 167.35 256.248V280.636C159.614 277.398 152.93 271.3 144.939 268.772V294.478C139.569 291.619 134.317 288.453 129.12 285.291C127.101 284.062 123.864 283.102 122.547 281.038C118.618 274.879 123.59 263.286 121.66 256.317C120.959 253.784 118.026 252.638 115.938 251.449C110.861 248.559 105.757 244.693 100.118 243.065Z" fill="#533D2E"/>
<path d="M55.9565 243.725C55.9565 250.326 53.5599 262.548 56.3539 268.515C57.3525 270.646 60.6199 271.813 62.5478 272.912C67.548 275.761 72.388 279.069 77.7079 281.295C77.7079 274.481 80.0254 262.631 77.3104 256.389C76.4015 254.3 73.6232 253.349 71.7757 252.293C66.7116 249.397 61.5703 245.376 55.9565 243.725Z" fill="#825D43"/>
<path d="M144.939 243.725C144.923 249.963 142.493 262.522 145.617 267.991C148.648 273.295 161.178 278.261 166.691 280.636C166.691 274.075 168.968 262.449 166.293 256.465C165.359 254.377 162.607 253.373 160.759 252.286C155.724 249.327 150.523 245.492 144.939 243.725Z" fill="#9FCC6B"/>
<path d="M122.529 255.589C122.529 262.573 120.144 274.759 122.926 281.155C123.842 283.259 126.629 284.175 128.461 285.291C133.701 288.483 139.171 292.366 144.939 294.478C144.939 286.03 143.638 276.35 145.599 268.113C137.43 265.122 130.526 259.035 122.529 255.589Z" fill="#619D49"/>
<path d="M322.246 268.772C316.565 272.249 304.802 276.025 301.173 281.644C299.896 283.62 300.495 286.964 300.495 289.205V307.66C306.059 305.263 318.961 300.003 322.228 294.88C323.419 293.011 322.905 289.996 322.905 287.886C322.905 282.261 324.425 273.965 322.246 268.772Z" fill="#475E50"/>
<path d="M167.35 281.295L166.691 384.12C151.875 376.316 137.973 365.537 122.529 359.073V384.12C117.032 381.752 103.728 376.158 100.796 370.868C97.6453 365.183 100.118 352.361 100.118 345.89C106.793 350.293 114.91 356.002 122.529 358.414V333.367C129.963 337.489 137.119 342.52 144.939 345.89C144.939 337.644 143.684 328.225 145.599 320.184C129.686 314.162 115.196 302.411 100.118 294.478V345.89C86.6496 337.646 71.0012 325.604 55.9565 320.843V338.64C55.9565 340.816 55.329 344.24 56.634 346.131C60.9936 352.449 73.0741 352.497 77.0303 359.213C80.5836 365.245 74.1545 376.307 78.7644 381.74C81.6989 385.2 87.6812 387.469 91.5496 389.788L119.892 406.538L180.533 442.521C190.641 448.515 200.717 455.928 211.512 460.579V436.191C217.161 439.198 229.977 443.968 233.245 449.514C236.9 455.719 232.176 466.15 234.132 472.981C234.835 475.435 237.823 476.648 239.855 477.816C245.105 480.831 250.191 484.382 255.674 486.945L256.333 384.779H255.674V409.826C250.123 406.872 237.982 402.372 234.6 397.045C231.351 391.93 233.922 378.297 233.922 372.255C241.474 375.51 247.982 381.209 255.674 384.12V347.208C255.674 343.21 257.099 335.767 254.996 332.263C251.794 326.928 239.484 322.122 233.922 319.525V371.596L218.103 362.461C215.99 361.281 212.887 360.078 211.909 357.685C209.034 350.649 214.935 339.422 210.834 332.965C206.579 326.263 192.636 326.191 189.499 318.744C186.442 311.486 192.046 301.186 188.704 294.076C187.793 292.139 184.92 291.143 183.169 290.141C177.949 287.154 172.827 283.785 167.35 281.295Z" fill="#825D43"/>
<path d="M299.177 281.954C293.471 286.028 282.064 289.155 278.103 294.896C276.798 296.787 277.425 300.212 277.425 302.387V320.843C285.173 318.008 292.885 312.75 299.836 308.32V333.367C311.149 328.078 322.041 320.884 332.792 314.514C335.898 312.673 342.763 310.305 344.259 306.861C346.906 300.768 344.657 289.261 344.657 282.613C328.686 287.669 315.25 301.018 299.836 307.661C299.836 300.297 302.018 288.726 299.177 281.954Z" fill="#352B22"/>
<path d="M299.836 281.954V307.661H300.495C300.495 300.297 302.677 288.726 299.836 281.954ZM344.657 281.954C344.657 288.237 347.181 301.426 343.979 306.861C341.874 310.435 334.981 312.844 331.474 314.904C320.972 321.072 309.995 326.644 299.836 333.367V308.32C292.08 311.845 284.952 316.842 277.425 320.843V295.137H276.766L277.425 345.89C285.432 343.535 292.125 337.253 299.836 334.026L300.495 384.12C315.647 378.604 330.858 367.442 344.657 359.073C344.657 365.38 347.174 378.514 343.979 383.981C341.923 387.503 335.567 389.68 332.133 391.648C321.743 397.604 311.091 405.729 299.836 409.826V435.532C308.061 433.158 315.388 427.01 322.905 423.009V448.056C331.114 445.068 337.961 438.985 345.975 435.532C344.686 430.116 343.125 415.536 345.993 410.624C349.05 405.389 361.573 400.261 367.067 397.962V422.35C372.525 420.744 385.859 414.678 388.8 409.686C390.823 406.252 389.478 399.217 389.478 395.325V359.073C381.813 361.498 374.838 367.191 367.726 370.937V353.141C367.726 350.788 367.161 347.487 368.783 345.542C373.35 340.064 386.074 339.106 389.08 332.483C390.816 328.66 389.478 321.711 389.478 317.548V281.954C381.434 284.501 373.9 290.549 366.408 294.478C370.381 311.163 366.092 330.784 366.938 347.868C367.222 353.602 369.27 365.774 366.39 370.815C363.066 376.632 350.88 380.438 345.316 384.12C345.316 377.664 342.71 363.593 346.634 358.414V357.755C343.383 353.462 345.316 343.267 345.316 337.981V299.092C345.316 293.987 346.637 286.673 344.657 281.954ZM189.101 293.819V312.934C189.101 315.227 188.528 318.455 190.158 320.326C195.179 326.089 206.9 326.829 210.834 333.507C214.575 339.857 209.772 350.671 211.721 357.685C212.412 360.169 215.384 361.31 217.444 362.461C222.817 365.462 228.149 369.483 233.922 371.596V319.525C240.754 324.031 248.284 328.554 255.674 332.048C255.674 325.484 257.949 313.866 255.276 307.877C253.098 303 238.901 296.602 233.922 295.137V318.866C218.031 312.885 205.187 299.315 189.101 293.819Z" fill="#533D2E"/>
<path d="M455.391 294.478C445.544 301.509 434.187 306.812 423.753 312.941C420.713 314.726 413.828 317.147 412.286 320.441C409.492 326.408 411.888 338.629 411.888 345.231C419.473 343 426.844 337.374 433.639 333.367V358.414C439.107 356.805 452.441 350.771 455.372 345.752C457.239 342.557 456.05 336.311 456.05 332.707V307.001C456.05 303.121 456.902 298.078 455.391 294.478Z" fill="#533D2E"/>
<path d="M55.9565 295.137C55.9565 301.511 53.4584 314.504 56.6341 320.062C58.6972 323.673 65.015 325.779 68.48 327.832C78.7243 333.903 89.1886 341.181 100.118 345.89C100.118 338.994 102.396 327.316 99.7209 320.965C98.2194 317.4 92.0684 315.395 88.9131 313.592C78.6234 307.712 67.3147 298.478 55.9565 295.137Z" fill="#B7855F"/>
<path d="M144.939 295.137C144.939 301.511 142.441 314.504 145.617 320.062C148.557 325.209 161.223 330.718 166.691 332.708C166.691 325.978 169.035 314.012 166.293 307.877C164.08 302.927 149.977 296.731 144.939 295.137Z" fill="#716D6B"/>
<path d="M345.316 357.755C350.612 356.543 363.516 350.414 366.39 345.673C368.426 342.316 367.067 335.222 367.067 331.389V295.137C361.67 296.725 349.029 302.394 345.993 307.251C343.94 310.536 345.316 317.724 345.316 321.502V357.755Z" fill="#352B22"/>
<path d="M144.94 320.843C144.94 327.487 142.561 339.617 145.337 345.64C146.271 347.667 149.052 348.707 150.872 349.746C155.975 352.659 161.616 357.099 167.35 358.414C167.35 351.691 169.561 340.342 166.953 334.148C166.027 331.95 163.353 330.904 161.418 329.794C156.137 326.762 150.759 322.685 144.94 320.843Z" fill="#533D2E"/>
<path d="M256.333 358.414C263.625 355.009 270.323 350.329 277.425 346.549V364.346C277.425 366.703 277.988 369.994 276.369 371.946C271.946 377.274 259.427 378.41 256.73 384.865C254.063 391.25 256.333 402.902 256.333 409.826C263.631 406.681 270.579 401.999 277.425 397.962V415.758C277.425 418.122 277.977 421.354 276.369 423.319C271.907 428.767 259.538 429.651 256.73 436.313C254.056 442.663 256.333 454.343 256.333 461.238C263.621 457.836 270.304 453.124 277.425 449.374V474.421C288.87 469.631 299.598 461.924 310.382 455.78C313.606 453.943 320.903 451.288 322.508 447.806C325.283 441.783 322.905 429.653 322.905 423.009C314.743 425.997 307.884 432.164 299.836 435.532V409.826C311.279 407.208 323.265 397.085 333.451 391.271C336.501 389.531 342.797 387.377 344.259 383.981C346.962 377.707 344.657 365.911 344.657 359.073C329.24 365.683 315.34 376.301 300.495 384.12L299.836 334.026C291.745 336.361 285.115 342.576 277.425 345.89V321.502C272.355 322.963 259.756 327.534 257.01 332.189C253.662 337.864 256.333 351.841 256.333 358.414Z" fill="#352B22"/>
<path d="M255.674 332.048V384.779C261.362 381.481 273.118 377.468 276.748 371.946C278.038 369.983 277.425 366.58 277.425 364.346V346.549C270.198 349.195 262.76 354.175 256.333 358.414C256.333 350.877 258.581 338.977 255.674 332.048Z" fill="#533D2E"/>
<path d="M122.529 333.367C122.529 340.184 120.213 352.026 122.926 358.273C124.425 361.721 131.266 364.15 134.393 365.942C144.763 371.887 155.465 380.033 166.691 384.12C166.691 377.388 169.034 365.429 166.293 359.29C164.725 355.777 158.036 353.384 154.826 351.621C144.245 345.809 133.813 337.637 122.529 333.367Z" fill="#B7855F"/>
<path d="M100.118 345.89C100.118 352.869 97.8768 364.41 100.516 370.868C101.422 373.086 104.098 374.164 106.051 375.272C111.3 378.247 116.733 382.415 122.529 384.12C122.529 377.475 124.907 365.346 122.132 359.323C121.128 357.147 117.897 355.876 115.938 354.738C110.746 351.725 105.556 348.429 100.118 345.89ZM55.9566 346.549C55.9566 352.49 54.1097 362.062 56.354 367.573C58.3947 372.583 72.6873 379.235 77.708 380.824C77.708 374.857 79.69 364.691 77.3105 359.213C75.1868 354.324 60.9271 348.011 55.9566 346.549Z" fill="#533D2E"/>
<path d="M345.316 384.12C350.753 381.578 363.258 376.546 366.39 371.38C369.608 366.072 367.067 352.735 367.067 346.549C362.005 347.707 347.85 354.334 345.713 359.271C343.011 365.519 345.316 377.306 345.316 384.12Z" fill="#475E50"/>
<path d="M233.922 372.255C233.922 378.857 231.526 391.079 234.32 397.045C235.237 399.004 238.099 400.079 239.855 401.125C244.899 404.131 250.161 407.808 255.674 409.826C255.674 403.072 258.006 391.162 255.276 384.994C253.105 380.089 238.917 373.725 233.922 372.255Z" fill="#B7855F"/>
<path d="M276.766 397.962C271.453 401.095 260.303 404.807 257.01 410.076C253.7 415.373 256.333 429.3 256.333 435.532C261.696 433.029 273.51 428.309 276.747 423.319C277.939 421.482 277.425 418.498 277.425 416.417C277.425 410.966 278.879 402.997 276.766 397.962Z" fill="#533D2E"/>
<path d="M345.315 434.873C350.286 433.411 364.546 427.098 366.669 422.209C369.316 416.115 367.067 404.609 367.067 397.962C362.032 399.415 347.86 405.639 345.713 410.624C343.077 416.745 345.315 428.205 345.315 434.873Z" fill="#352B22"/>
<path d="M255.674 435.532V486.945C261.187 484.926 266.449 481.249 271.493 478.243C273.249 477.197 276.11 476.122 277.028 474.164C279.822 468.198 277.425 455.976 277.425 449.374C270.136 452.028 262.802 456.972 256.333 461.238C256.333 453.875 258.515 442.304 255.674 435.532Z" fill="#533D2E"/>
<path d="M211.512 436.191C211.512 442.83 209.405 453.701 211.909 459.852C212.901 462.285 215.989 463.529 218.103 464.798C223.196 467.854 228.338 471.717 233.922 473.762C233.922 467.115 236.171 455.607 233.525 449.514C232.617 447.426 229.828 446.382 227.99 445.287C222.734 442.155 217.257 438.295 211.512 436.191Z" fill="#533D2E"/>
</svg>
